<svg width="281" height="45" viewBox="0 0 281 45" fill="none" xmlns="http://www.w3.org/2000/svg">
<rect opacity="0.1" x="0.559761" y="0.934761" width="42.5418" height="42.5418" rx="21.2709" fill="#091E42" stroke="#0A142F" stroke-width="1.11952"/>
<path fill-rule="evenodd" clip-rule="evenodd" d="M19.6484 30.6022V22.2051H17.9123V19.3113H19.6484V17.5739C19.6484 15.2131 20.6287 13.8093 23.4139 13.8093H25.7326V16.7034H24.2832C23.199 16.7034 23.1273 17.1079 23.1273 17.8626L23.1234 19.311H25.749L25.4418 22.2048H23.1234V30.6022H19.6484Z" fill="#172B4D"/>
<rect opacity="0.1" x="59.8944" y="0.934761" width="42.5418" height="42.5418" rx="21.2709" fill="#091E42" stroke="#0A142F" stroke-width="1.11952"/>
<path fill-rule="evenodd" clip-rule="evenodd" d="M77.247 29.4824H73.8884V19.4067H77.247V29.4824Z" fill="#172B4D"/>
<path fill-rule="evenodd" clip-rule="evenodd" d="M75.5577 17.1679H75.5386C74.5364 17.1679 73.8884 16.4212 73.8884 15.488C73.8884 14.5351 74.5561 13.8093 75.5774 13.8093C76.5987 13.8093 77.2276 14.5351 77.247 15.488C77.247 16.4212 76.5987 17.1679 75.5577 17.1679Z" fill="#172B4D"/>
<path fill-rule="evenodd" clip-rule="evenodd" d="M89.5616 29.4822H86.2613V24.2155C86.2613 22.8926 85.7838 21.9899 84.589 21.9899C83.6772 21.9899 83.1341 22.5985 82.8955 23.1862C82.8083 23.3969 82.7869 23.6904 82.7869 23.9846V29.4824H79.4861C79.4861 29.4824 79.5296 20.5619 79.4861 19.6382H82.7869V21.0325C83.2249 20.3622 84.0094 19.4067 85.7617 19.4067C87.9336 19.4067 89.5618 20.814 89.5618 23.8378L89.5616 29.4822Z" fill="#172B4D"/>
<rect opacity="0.1" x="119.229" y="0.934761" width="42.5418" height="42.5418" rx="21.2709" fill="#091E42" stroke="#0A142F" stroke-width="1.11952"/>
<g clip-path="url(#clip0_2373_262)">
<path d="M141.064 18.2388C138.521 18.2388 136.47 20.2579 136.47 22.7611C136.47 25.2643 138.521 27.2833 141.064 27.2833C143.607 27.2833 145.658 25.2643 145.658 22.7611C145.658 20.2579 143.607 18.2388 141.064 18.2388ZM141.064 25.7011C139.42 25.7011 138.077 24.3826 138.077 22.7611C138.077 21.1395 139.416 19.821 141.064 19.821C142.711 19.821 144.051 21.1395 144.051 22.7611C144.051 24.3826 142.707 25.7011 141.064 25.7011ZM146.917 18.0538C146.917 18.6403 146.437 19.1086 145.846 19.1086C145.25 19.1086 144.774 18.6363 144.774 18.0538C144.774 17.4713 145.254 16.999 145.846 16.999C146.437 16.999 146.917 17.4713 146.917 18.0538ZM149.96 19.1244C149.892 17.7114 149.564 16.4598 148.513 15.4286C147.465 14.3975 146.194 14.0747 144.758 14.0039C143.279 13.9212 138.845 13.9212 137.365 14.0039C135.934 14.0708 134.663 14.3935 133.611 15.4247C132.559 16.4559 132.236 17.7075 132.164 19.1204C132.08 20.5767 132.08 24.9415 132.164 26.3978C132.232 27.8107 132.559 29.0623 133.611 30.0935C134.663 31.1247 135.93 31.4474 137.365 31.5183C138.845 31.6009 143.279 31.6009 144.758 31.5183C146.194 31.4514 147.465 31.1286 148.513 30.0935C149.56 29.0623 149.888 27.8107 149.96 26.3978C150.044 24.9415 150.044 20.5806 149.96 19.1244ZM148.049 27.9603C147.737 28.7317 147.133 29.326 146.346 29.6369C145.166 30.0974 142.367 29.9912 141.064 29.9912C139.76 29.9912 136.958 30.0935 135.782 29.6369C134.998 29.33 134.395 28.7356 134.079 27.9603C133.611 26.7992 133.719 24.0442 133.719 22.7611C133.719 21.478 133.615 18.719 134.079 17.5619C134.391 16.7904 134.994 16.1961 135.782 15.8852C136.962 15.4247 139.76 15.531 141.064 15.531C142.367 15.531 145.17 15.4286 146.346 15.8852C147.129 16.1922 147.733 16.7865 148.049 17.5619C148.517 18.7229 148.409 21.478 148.409 22.7611C148.409 24.0442 148.517 26.8032 148.049 27.9603Z" fill="#172B4D"/>
</g>
<rect opacity="0.1" x="178.564" y="0.934761" width="42.5418" height="42.5418" rx="21.2709" fill="#091E42" stroke="#0A142F" stroke-width="1.11952"/>
<path fill-rule="evenodd" clip-rule="evenodd" d="M199.624 19.3242L199.656 19.8569L199.13 19.7916C197.216 19.5416 195.544 18.6937 194.125 17.2697L193.431 16.5631L193.252 17.0849C192.873 18.248 193.115 19.4764 193.904 20.3025C194.324 20.7591 194.23 20.8243 193.504 20.5526C193.252 20.4656 193.031 20.4004 193.01 20.433C192.936 20.5091 193.189 21.4983 193.389 21.8896C193.662 22.4331 194.219 22.9658 194.829 23.281L195.344 23.531L194.735 23.5419C194.146 23.5419 194.125 23.5528 194.188 23.7811C194.398 24.4876 195.229 25.2377 196.154 25.5638L196.806 25.7921L196.238 26.1399C195.397 26.64 194.409 26.9226 193.42 26.9443C192.947 26.9552 192.558 26.9987 192.558 27.0313C192.558 27.14 193.841 27.7487 194.587 27.9879C196.827 28.6945 199.488 28.3901 201.486 27.1835C202.905 26.3247 204.325 24.6181 204.988 22.9658C205.345 22.0853 205.703 20.4765 205.703 19.7047C205.703 19.2046 205.734 19.1394 206.323 18.5415C206.67 18.1937 206.996 17.8132 207.059 17.7045C207.164 17.498 207.154 17.498 206.618 17.6828C205.724 18.0089 205.597 17.9654 206.039 17.4763C206.365 17.1284 206.754 16.4979 206.754 16.3131C206.754 16.2805 206.597 16.3349 206.418 16.4327C206.228 16.5414 205.808 16.7045 205.492 16.8023L204.924 16.9871L204.409 16.6284C204.125 16.4327 203.726 16.2153 203.515 16.1501C202.979 15.9979 202.159 16.0196 201.675 16.1935C200.361 16.6827 199.53 17.9437 199.624 19.3242Z" fill="#172B4D"/>
<rect opacity="0.1" x="237.898" y="0.934761" width="42.5418" height="42.5418" rx="21.2709" fill="#091E42" stroke="#0A142F" stroke-width="1.11952"/>
<path d="M263.647 29.1098H254.318C251.519 29.1098 249.653 27.3372 249.653 24.6784V19.3606C249.653 16.7018 251.519 14.9292 254.318 14.9292H263.647C266.446 14.9292 268.312 16.7018 268.312 19.3606V24.6784C268.312 27.3372 266.446 29.1098 263.647 29.1098Z" stroke="#091E42" stroke-width="1.11952" stroke-miterlimit="10" stroke-linecap="round" stroke-linejoin="round"/>
<path d="M259.169 19.99L261.502 21.3195C262.341 21.8512 262.341 22.6489 261.502 23.1807L259.169 24.5101C258.236 25.0419 257.49 24.5987 257.49 23.6238V20.965C257.49 19.8128 258.236 19.4583 259.169 19.99Z" stroke="#091E42" stroke-width="1.11952" stroke-miterlimit="10" stroke-linecap="round" stroke-linejoin="round"/>
<defs>
<clipPath id="clip0_2373_262">
<rect width="17.9123" height="20.1514" fill="white" transform="translate(132.104 12.6897)"/>
</clipPath>
</defs>
</svg>
